<svg width="95" height="183" viewBox="0 0 95 183" fill="none" xmlns="http://www.w3.org/2000/svg">
<g filter="url(#filter0_d_2_14)">
<path d="M43.5 1H52V56.5H66.5V33H75V56.5C87 56.5 90 63.1667 90 66.5V159C90 170.2 81 174 76.5 174.5H29C10.6 174.5 5.33333 166.5 5 162.5V68C5 60.8 12.6667 57.3333 16.5 56.5V34H30.5V56.5H43.5V1Z" fill="#CB2B2B"/>
<path d="M43.5 1H52V56.5H66.5V33H75V56.5C87 56.5 90 63.1667 90 66.5V159C90 170.2 81 174 76.5 174.5H29C10.6 174.5 5.33333 166.5 5 162.5V68C5 60.8 12.6667 57.3333 16.5 56.5V34H30.5V56.5H43.5V1Z" stroke="white" stroke-linejoin="round"/>
</g>
<rect x="18" y="88" width="59" height="46" fill="white"/>
<path d="M31.5715 117.368V114.488H43.9555V117.368H31.5715ZM35.1555 100.664H40.0195L46.9315 123H43.4435L38.9315 108.216L37.5875 103.32L36.2435 108.248L31.6675 123H28.2435L35.1555 100.664ZM53.504 114.52V111.672H63.296V114.52H53.504Z" fill="black"/>
<defs>
<filter id="filter0_d_2_14" x="0.5" y="0.5" width="94" height="182.5" filterUnits="userSpaceOnUse" color-interpolation-filters="sRGB">
<feFlood flood-opacity="0" result="BackgroundImageFix"/>
<feColorMatrix in="SourceAlpha" type="matrix" values="0 0 0 0 0 0 0 0 0 0 0 0 0 0 0 0 0 0 127 0" result="hardAlpha"/>
<feOffset dy="4"/>
<feGaussianBlur stdDeviation="2"/>
<feComposite in2="hardAlpha" operator="out"/>
<feColorMatrix type="matrix" values="0 0 0 0 0 0 0 0 0 0 0 0 0 0 0 0 0 0 0.25 0"/>
<feBlend mode="normal" in2="BackgroundImageFix" result="effect1_dropShadow_2_14"/>
<feBlend mode="normal" in="SourceGraphic" in2="effect1_dropShadow_2_14" result="shape"/>
</filter>
</defs>
</svg>
