<svg width="95" height="183" viewBox="0 0 95 183" fill="none" xmlns="http://www.w3.org/2000/svg">
<g filter="url(#filter0_d_2_18)">
<path d="M43.5 1H52V56.5H66.5V33H75V56.5C87 56.5 90 63.1667 90 66.5V159C90 170.2 81 174 76.5 174.5H29C10.6 174.5 5.33333 166.5 5 162.5V68C5 60.8 12.6667 57.3333 16.5 56.5V34H30.5V56.5H43.5V1Z" fill="#CB2B2B"/>
<path d="M43.5 1H52V56.5H66.5V33H75V56.5C87 56.5 90 63.1667 90 66.5V159C90 170.2 81 174 76.5 174.5H29C10.6 174.5 5.33333 166.5 5 162.5V68C5 60.8 12.6667 57.3333 16.5 56.5V34H30.5V56.5H43.5V1Z" stroke="white" stroke-linejoin="round"/>
</g>
<g filter="url(#filter1_d_2_18)">
<path d="M43.5 1H52V56.5H66.5V33H75V56.5C87 56.5 90 63.1667 90 66.5V159C90 170.2 81 174 76.5 174.5H29C10.6 174.5 5.33333 166.5 5 162.5V68C5 60.8 12.6667 57.3333 16.5 56.5V34H30.5V56.5H43.5V1Z" fill="#CB2B2B"/>
<path d="M43.5 1H52V56.5H66.5V33H75V56.5C87 56.5 90 63.1667 90 66.5V159C90 170.2 81 174 76.5 174.5H29C10.6 174.5 5.33333 166.5 5 162.5V68C5 60.8 12.6667 57.3333 16.5 56.5V34H30.5V56.5H43.5V1Z" stroke="white" stroke-linejoin="round"/>
</g>
<rect x="18" y="88" width="59" height="46" fill="white"/>
<path d="M42.0035 111.288C42.8142 111.523 43.5288 111.875 44.1475 112.344C44.7875 112.813 45.2888 113.421 45.6515 114.168C46.0355 114.893 46.2275 115.747 46.2275 116.728C46.2275 117.987 45.9075 119.085 45.2675 120.024C44.6488 120.963 43.7635 121.699 42.6115 122.232C41.4595 122.744 40.0942 123 38.5155 123H29.8755V100.664H38.1955C40.5422 100.664 42.3768 101.176 43.6995 102.2C45.0222 103.224 45.6835 104.568 45.6835 106.232C45.6835 107.021 45.5342 107.757 45.2355 108.44C44.9582 109.123 44.5422 109.709 43.9875 110.2C43.4328 110.691 42.7715 111.053 42.0035 111.288ZM38.0355 103.544H33.2675V110.136H38.0355C39.2942 110.136 40.2862 109.827 41.0115 109.208C41.7582 108.589 42.1315 107.768 42.1315 106.744C42.1315 105.741 41.7582 104.963 41.0115 104.408C40.2648 103.832 39.2728 103.544 38.0355 103.544ZM33.2675 120.12H38.4515C39.7528 120.12 40.7768 119.8 41.5235 119.16C42.2915 118.52 42.6755 117.656 42.6755 116.568C42.6755 115.437 42.2702 114.563 41.4595 113.944C40.6702 113.325 39.5608 113.016 38.1315 113.016H33.2675V120.12ZM50.304 114.552V111.704H66.496V114.552H50.304ZM56.992 121.272V105.08H59.808V121.272H56.992Z" fill="black"/>
<defs>
<filter id="filter0_d_2_18" x="0.5" y="0.5" width="94" height="182.5" filterUnits="userSpaceOnUse" color-interpolation-filters="sRGB">
<feFlood flood-opacity="0" result="BackgroundImageFix"/>
<feColorMatrix in="SourceAlpha" type="matrix" values="0 0 0 0 0 0 0 0 0 0 0 0 0 0 0 0 0 0 127 0" result="hardAlpha"/>
<feOffset dy="4"/>
<feGaussianBlur stdDeviation="2"/>
<feComposite in2="hardAlpha" operator="out"/>
<feColorMatrix type="matrix" values="0 0 0 0 0 0 0 0 0 0 0 0 0 0 0 0 0 0 0.25 0"/>
<feBlend mode="normal" in2="BackgroundImageFix" result="effect1_dropShadow_2_18"/>
<feBlend mode="normal" in="SourceGraphic" in2="effect1_dropShadow_2_18" result="shape"/>
</filter>
<filter id="filter1_d_2_18" x="0.5" y="0.5" width="94" height="182.5" filterUnits="userSpaceOnUse" color-interpolation-filters="sRGB">
<feFlood flood-opacity="0" result="BackgroundImageFix"/>
<feColorMatrix in="SourceAlpha" type="matrix" values="0 0 0 0 0 0 0 0 0 0 0 0 0 0 0 0 0 0 127 0" result="hardAlpha"/>
<feOffset dy="4"/>
<feGaussianBlur stdDeviation="2"/>
<feComposite in2="hardAlpha" operator="out"/>
<feColorMatrix type="matrix" values="0 0 0 0 0 0 0 0 0 0 0 0 0 0 0 0 0 0 0.25 0"/>
<feBlend mode="normal" in2="BackgroundImageFix" result="effect1_dropShadow_2_18"/>
<feBlend mode="normal" in="SourceGraphic" in2="effect1_dropShadow_2_18" result="shape"/>
</filter>
</defs>
</svg>
