<svg width="95" height="183" viewBox="0 0 95 183" fill="none" xmlns="http://www.w3.org/2000/svg">
<g filter="url(#filter0_d_2_36)">
<path d="M43.5 1H52V56.5H66.5V33H75V56.5C87 56.5 90 63.1667 90 66.5V159C90 170.2 81 174 76.5 174.5H29C10.6 174.5 5.33333 166.5 5 162.5V68C5 60.8 12.6667 57.3333 16.5 56.5V34H30.5V56.5H43.5V1Z" fill="#CB2B2B"/>
<path d="M43.5 1H52V56.5H66.5V33H75V56.5C87 56.5 90 63.1667 90 66.5V159C90 170.2 81 174 76.5 174.5H29C10.6 174.5 5.33333 166.5 5 162.5V68C5 60.8 12.6667 57.3333 16.5 56.5V34H30.5V56.5H43.5V1Z" stroke="white" stroke-linejoin="round"/>
</g>
<g filter="url(#filter1_d_2_36)">
<path d="M43.5 1H52V56.5H66.5V33H75V56.5C87 56.5 90 63.1667 90 66.5V159C90 170.2 81 174 76.5 174.5H29C10.6 174.5 5.33333 166.5 5 162.5V68C5 60.8 12.6667 57.3333 16.5 56.5V34H30.5V56.5H43.5V1Z" fill="#CB2B2B"/>
<path d="M43.5 1H52V56.5H66.5V33H75V56.5C87 56.5 90 63.1667 90 66.5V159C90 170.2 81 174 76.5 174.5H29C10.6 174.5 5.33333 166.5 5 162.5V68C5 60.8 12.6667 57.3333 16.5 56.5V34H30.5V56.5H43.5V1Z" stroke="white" stroke-linejoin="round"/>
</g>
<rect x="18" y="88" width="59" height="46" fill="white"/>
<path d="M23.3424 115.72V113.02H34.9524V115.72H23.3424ZM26.7024 100.06H31.2624L37.7424 121H34.4724L30.2424 107.14L28.9824 102.55L27.7224 107.17L23.4324 121H20.2224L26.7024 100.06ZM52.6341 110.02C53.3941 110.24 54.0641 110.57 54.6441 111.01C55.2441 111.45 55.7141 112.02 56.0541 112.72C56.4141 113.4 56.5941 114.2 56.5941 115.12C56.5941 116.3 56.2941 117.33 55.6941 118.21C55.1141 119.09 54.2841 119.78 53.2041 120.28C52.1241 120.76 50.8441 121 49.3641 121H41.2641V100.06H49.0641C51.2641 100.06 52.9841 100.54 54.2241 101.5C55.4641 102.46 56.0841 103.72 56.0841 105.28C56.0841 106.02 55.9441 106.71 55.6641 107.35C55.4041 107.99 55.0141 108.54 54.4941 109C53.9741 109.46 53.3541 109.8 52.6341 110.02ZM48.9141 102.76H44.4441V108.94H48.9141C50.0941 108.94 51.0241 108.65 51.7041 108.07C52.4041 107.49 52.7541 106.72 52.7541 105.76C52.7541 104.82 52.4041 104.09 51.7041 103.57C51.0041 103.03 50.0741 102.76 48.9141 102.76ZM44.4441 118.3H49.3041C50.5241 118.3 51.4841 118 52.1841 117.4C52.9041 116.8 53.2641 115.99 53.2641 114.97C53.2641 113.91 52.8841 113.09 52.1241 112.51C51.3841 111.93 50.3441 111.64 49.0041 111.64H44.4441V118.3ZM63.4159 113.05V110.38H72.5959V113.05H63.4159Z" fill="black"/>
<defs>
<filter id="filter0_d_2_36" x="0.5" y="0.5" width="94" height="182.5" filterUnits="userSpaceOnUse" color-interpolation-filters="sRGB">
<feFlood flood-opacity="0" result="BackgroundImageFix"/>
<feColorMatrix in="SourceAlpha" type="matrix" values="0 0 0 0 0 0 0 0 0 0 0 0 0 0 0 0 0 0 127 0" result="hardAlpha"/>
<feOffset dy="4"/>
<feGaussianBlur stdDeviation="2"/>
<feComposite in2="hardAlpha" operator="out"/>
<feColorMatrix type="matrix" values="0 0 0 0 0 0 0 0 0 0 0 0 0 0 0 0 0 0 0.25 0"/>
<feBlend mode="normal" in2="BackgroundImageFix" result="effect1_dropShadow_2_36"/>
<feBlend mode="normal" in="SourceGraphic" in2="effect1_dropShadow_2_36" result="shape"/>
</filter>
<filter id="filter1_d_2_36" x="0.5" y="0.5" width="94" height="182.5" filterUnits="userSpaceOnUse" color-interpolation-filters="sRGB">
<feFlood flood-opacity="0" result="BackgroundImageFix"/>
<feColorMatrix in="SourceAlpha" type="matrix" values="0 0 0 0 0 0 0 0 0 0 0 0 0 0 0 0 0 0 127 0" result="hardAlpha"/>
<feOffset dy="4"/>
<feGaussianBlur stdDeviation="2"/>
<feComposite in2="hardAlpha" operator="out"/>
<feColorMatrix type="matrix" values="0 0 0 0 0 0 0 0 0 0 0 0 0 0 0 0 0 0 0.25 0"/>
<feBlend mode="normal" in2="BackgroundImageFix" result="effect1_dropShadow_2_36"/>
<feBlend mode="normal" in="SourceGraphic" in2="effect1_dropShadow_2_36" result="shape"/>
</filter>
</defs>
</svg>
